Run_50002
nRows=4
nColumns=164

# SIMM Motion File Header:
name Run_50002
datacolumns 164
datarows 4
otherdata 1
range 1.35000000 1.37500000
endheader
time	pelvis_tilt	pelvis_list	pelvis_rotation	pelvis_tx	pelvis_ty	pelvis_tz	hip_flexion_r	hip_adduction_r	hip_rotation_r	knee_angle_r	ankle_angle_r	hip_flexion_l	hip_adduction_l	hip_rotation_l	knee_angle_l	ankle_angle_l	lumbar_extension	lumbar_bending	lumbar_rotation	arm_flex_r	arm_add_r	arm_rot_r	elbow_flex_r	pro_sup_r	arm_flex_l	arm_add_l	arm_rot_l	elbow_flex_l	pro_sup_l	subtalar_angle_r	mtp_angle_r	subtalar_angle_l	mtp_angle_l	wrist_flex_r	wrist_dev_r	wrist_flex_l	wrist_dev_l	LASI_tx	LASI_ty	LASI_tz	RASI_tx	RASI_ty	RASI_tz	LPSI_tx	LPSI_ty	LPSI_tz	RPSI_tx	RPSI_ty	RPSI_tz	RTH1_tx	RTH1_ty	RTH1_tz	RTH2_tx	RTH2_ty	RTH2_tz	RTH3_tx	RTH3_ty	RTH3_tz	LTH1_tx	LTH1_ty	LTH1_tz	LTH2_tx	LTH2_ty	LTH2_tz	LTH3_tx	LTH3_ty	LTH3_tz	RTB1_tx	RTB1_ty	RTB1_tz	RTB2_tx	RTB2_ty	RTB2_tz	RTB3_tx	RTB3_ty	RTB3_tz	LTB1_tx	LTB1_ty	LTB1_tz	LTB2_tx	LTB2_ty	LTB2_tz	LTB3_tx	LTB3_ty	LTB3_tz	RCAL_tx	RCAL_ty	RCAL_tz	RTOE_tx	RTOE_ty	RTOE_tz	RMT5_tx	RMT5_ty	RMT5_tz	LCAL_tx	LCAL_ty	LCAL_tz	LTOE_tx	LTOE_ty	LTOE_tz	LMT5_tx	LMT5_ty	LMT5_tz	LACR_tx	LACR_ty	LACR_tz	RACR_tx	RACR_ty	RACR_tz	CLAV_tx	CLAV_ty	CLAV_tz	C7_tx	C7_ty	C7_tz	RUA1_tx	RUA1_ty	RUA1_tz	RUA2_tx	RUA2_ty	RUA2_tz	RUA3_tx	RUA3_ty	RUA3_tz	RLEL_tx	RLEL_ty	RLEL_tz	RMEL_tx	RMEL_ty	RMEL_tz	LUA1_tx	LUA1_ty	LUA1_tz	LUA2_tx	LUA2_ty	LUA2_tz	LUA3_tx	LUA3_ty	LUA3_tz	LLEL_tx	LLEL_ty	LLEL_tz	LMEL_tx	LMEL_ty	LMEL_tz	RFAsuperior_tx	RFAsuperior_ty	RFAsuperior_tz	RFAradius_tx	RFAradius_ty	RFAradius_tz	RFAulna_tx	RFAulna_ty	RFAulna_tz	LFAsuperior_tx	LFAsuperior_ty	LFAsuperior_tz	LFAradius_tx	LFAradius_ty	LFAradius_tz	LFAulna_tx	LFAulna_ty	LFAulna_tz
      1.35000000	      0.79095037	     -0.09977317	     -2.13083991	      0.80396476	      0.94851219	     -0.37349476	     29.59750137	      5.43869368	      1.01091944	    -36.95820201	      4.16023620	     -1.44316855	     -2.47895983	     -6.69667009	   -118.98450954	     -5.54860670	    -16.78927191	      3.65078539	    -12.44127900	    -27.37415154	    -38.49627854	    -22.34023430	    110.40386694	     71.09539601	    -32.16383003	    -27.53896634	      2.33383597	    118.78326613	     90.92388488	      0.00000000	      0.00000000	      0.00000000	      0.00000000	      0.00000000	      0.00000000	      0.00000000	      0.00000000	      0.82436613	      0.96903798	     -0.49416072	      0.79473464	      0.97647530	     -0.25392673	      0.64745454	      0.98848254	     -0.42545328	      0.63463019	      0.98828183	     -0.33812242	      0.81003738	      0.80223296	     -0.21016210	      0.91725553	      0.72271886	     -0.24253422	      0.89452223	      0.57756062	     -0.24942493	      0.77221923	      0.81534085	     -0.54316769	      0.80668000	      0.69712784	     -0.54067583	      0.71891561	      0.57562483	     -0.54950605	      0.98176603	      0.38952937	     -0.33075912	      0.94869736	      0.32420678	     -0.27938633	      0.94722584	      0.21291791	     -0.35542510	      0.58784687	      0.47131688	     -0.47751401	      0.50770604	      0.55783951	     -0.52239563	      0.43366296	      0.58118042	     -0.44765051	      0.81637212	      0.09979205	     -0.35589958	      1.03544785	      0.06767450	     -0.36743309	      1.00347122	      0.06365973	     -0.27427492	      0.39090901	      0.72772311	     -0.45011965	      0.26392956	      0.55169676	     -0.42371913	      0.23849823	      0.59252380	     -0.50293107	      0.84976259	      1.43059044	     -0.53200068	      0.75697348	      1.42105084	     -0.17679042	      0.88856036	      1.37888746	     -0.30239848	      0.77122420	      1.47396456	     -0.36352125	      0.69706409	      1.34371352	     -0.10402102	      0.69900256	      1.27852349	     -0.08028882	      0.59134277	      1.28541155	     -0.08598143	      0.58210466	      1.22124733	     -0.02069323	      0.56035134	      1.17732709	     -0.09480518	      0.81486290	      1.37436936	     -0.59773204	      0.73507156	      1.33758003	     -0.60885960	      0.78965430	      1.29331618	     -0.64891542	      0.74619841	      1.20375460	     -0.70737252	      0.66990476	      1.18620784	     -0.66166659	      0.65650370	      1.19217116	      0.00531079	      0.81540415	      1.12417454	      0.00287762	      0.76885894	      1.07598137	      0.02362011	      0.80237194	      1.17083254	     -0.67520745	      0.88261342	      1.09469212	     -0.53052478	      0.86047402	      1.04399643	     -0.57065913
      1.35833300	      0.60786587	     -1.19186184	     -3.37781250	      0.79941861	      0.94320555	     -0.37168331	     29.97481624	      7.36440570	      1.60341513	    -42.04697140	      7.91740484	      2.44647141	     -4.04946994	     -7.45608431	   -124.26129876	     -3.45020675	    -17.28344466	      4.66447969	    -10.04328875	    -23.36968943	    -38.48704506	    -20.86427399	    110.57969889	     70.65221358	    -33.30095086	    -26.19003406	      0.67066556	    115.94741965	     91.50998040	      0.00000000	      0.00000000	      0.00000000	      0.00000000	      0.00000000	      0.00000000	      0.00000000	      0.00000000	      0.82276229	      0.96222357	     -0.49311879	      0.78945791	      0.97124611	     -0.25270728	      0.64363544	      0.98223206	     -0.42758857	      0.62753301	      0.98440884	     -0.34049131	      0.80375104	      0.80055562	     -0.20858017	      0.91210861	      0.72136745	     -0.24117104	      0.88934968	      0.57671224	     -0.24856968	      0.77716025	      0.81026713	     -0.54157219	      0.81550084	      0.69484846	     -0.54101340	      0.73603251	      0.56813899	     -0.54972303	      0.96487296	      0.38697035	     -0.33322315	      0.92859785	      0.32496569	     -0.28137518	      0.91723299	      0.21303331	     -0.35826962	      0.61384653	      0.46844024	     -0.47818544	      0.53466071	      0.55547250	     -0.52360647	      0.46215873	      0.58083657	     -0.44847982	      0.77571960	      0.10131062	     -0.35737873	      0.99420683	      0.06654238	     -0.36738061	      0.96210810	      0.06451540	     -0.27504585	      0.42091255	      0.72930616	     -0.44972958	      0.29358113	      0.55269351	     -0.42803982	      0.27084526	      0.59387567	     -0.50838201	      0.84543968	      1.42578164	     -0.53190678	      0.75917431	      1.41538589	     -0.17235622	      0.89071519	      1.37161541	     -0.30291457	      0.77012940	      1.46882767	     -0.36022043	      0.70295314	      1.33047849	     -0.10128264	      0.70739396	      1.26530183	     -0.07840555	      0.59957450	      1.26919402	     -0.07996577	      0.59457407	      1.20414825	     -0.01689375	      0.57268077	      1.15925348	     -0.09061169	      0.80762445	      1.37019954	     -0.59654271	      0.72684297	      1.33478089	     -0.60390469	      0.77941566	      1.29035052	     -0.64695462	      0.73186648	      1.20268840	     -0.70553648	      0.65757875	      1.18550021	     -0.65744497	      0.67132700	      1.17895868	      0.00574921	      0.83201435	      1.11937323	     -0.00047995	      0.78835127	      1.06865521	      0.02096831	      0.78753122	      1.16562870	     -0.67695210	      0.87180051	      1.07852035	     -0.54110836	      0.84565121	      1.03076127	     -0.58320970
      1.36666700	      0.27726993	     -2.31323285	     -4.54665377	      0.79540203	      0.93954539	     -0.37027706	     29.40212346	      9.04832177	      2.09505852	    -45.24397018	     10.96461305	      6.79266618	     -5.65155840	     -7.83145154	   -128.67613449	     -1.75068041	    -17.55418770	      5.74437823	     -7.61734871	    -19.23853637	    -38.31016954	    -19.15583389	    110.70718744	     70.49890135	    -34.15985778	    -24.69383688	     -0.99758576	    112.76452687	     92.67008019	      0.00000000	      0.00000000	      0.00000000	      0.00000000	      0.00000000	      0.00000000	      0.00000000	      0.00000000	      0.82038021	      0.95642157	     -0.49204322	      0.78453099	      0.96914870	     -0.25056816	      0.64018698	      0.97943320	     -0.43041193	      0.62237146	      0.98341072	     -0.34356117	      0.79714058	      0.79920957	     -0.20759160	      0.90467648	      0.71811801	     -0.24065346	      0.87947285	      0.57373807	     -0.24861387	      0.78198340	      0.80722779	     -0.53994183	      0.82562623	      0.69466679	     -0.54057668	      0.75593231	      0.56332141	     -0.54985964	      0.94548935	      0.38256426	     -0.33268842	      0.90359548	      0.32348043	     -0.28036090	      0.88553296	      0.21140154	     -0.35665698	      0.64243575	      0.46607789	     -0.47800513	      0.56341674	      0.55193094	     -0.52495316	      0.49114733	      0.57799942	     -0.44956943	      0.73558810	      0.10256405	     -0.35799305	      0.95349080	      0.06611989	     -0.36701958	      0.92112520	      0.06474798	     -0.27532316	      0.44777873	      0.72825885	     -0.45037765	      0.32361877	      0.54901618	     -0.43152459	      0.30273923	      0.58932619	     -0.51323642	      0.84060519	      1.42226908	     -0.53176723	      0.76149298	      1.41072326	     -0.16769526	      0.89232781	      1.36547041	     -0.30359907	      0.76940562	      1.46552868	     -0.35685157	      0.70918441	      1.31889755	     -0.09927150	      0.71651815	      1.25358675	     -0.07752352	      0.60878831	      1.25413709	     -0.07509001	      0.60901556	      1.18794837	     -0.01403061	      0.58640644	      1.14216789	     -0.08702364	      0.80034347	      1.36737080	     -0.59537052	      0.71869037	      1.33251602	     -0.59826772	      0.76917830	      1.28888301	     -0.64478485	      0.71767293	      1.20283386	     -0.70318756	      0.64564555	      1.18542385	     -0.65245392	      0.68785854	      1.16718792	      0.00467025	      0.84975028	      1.11612400	     -0.00583888	      0.80908791	      1.06308979	      0.01628988	      0.77293272	      1.16192892	     -0.67840832	      0.86034358	      1.06409589	     -0.55225757	      0.83045298	      1.01974863	     -0.59636213
      1.37500000	     -0.19492787	     -3.22284965	     -5.53293632	      0.79242954	      0.93741027	     -0.36920340	     27.81059592	     10.26080308	      2.58652774	    -46.50963062	     13.60385850	     11.57941531	     -6.96011017	     -7.76153567	   -132.07740344	     -0.38646308	    -17.48355494	      6.63030778	     -5.44695576	    -15.08211395	    -37.87165403	    -17.14561880	    110.79962464	     70.51095478	    -35.01990636	    -23.14438140	     -2.81101434	    109.50419290	     94.29396673	      0.00000000	      0.00000000	      0.00000000	      0.00000000	      0.00000000	      0.00000000	      0.00000000	      0.00000000	      0.81763529	      0.95237579	     -0.49115830	      0.78096015	      0.96954971	     -0.24746730	      0.63755169	      0.97982666	     -0.43314197	      0.62009073	      0.98453611	     -0.34657396	      0.79005007	      0.79739076	     -0.20714096	      0.89402978	      0.71161958	     -0.24033277	      0.86390179	      0.56812274	     -0.24970699	      0.78633302	      0.80621155	     -0.53839072	      0.83766831	      0.69670105	     -0.53920394	      0.77853617	      0.56190011	     -0.55001833	      0.92309614	      0.37493111	     -0.33074898	      0.87457969	      0.31816636	     -0.27822151	      0.85165735	      0.20698142	     -0.35315717	      0.67298488	      0.46467812	     -0.47665999	      0.59364471	      0.54766107	     -0.52618539	      0.51999051	      0.57321295	     -0.45062058	      0.69568024	      0.10357783	     -0.35799618	      0.91321737	      0.06535182	     -0.36713737	      0.88044669	      0.06418705	     -0.27526647	      0.47062337	      0.72476336	     -0.45194045	      0.35355538	      0.54084259	     -0.43399594	      0.33393152	      0.57896121	     -0.51730853	      0.83547920	      1.42026662	     -0.53151072	      0.76404797	      1.40713004	     -0.16345705	      0.89312906	      1.36113521	     -0.30433478	      0.76906088	      1.46403962	     -0.35380376	      0.71549241	      1.30994610	     -0.09812224	      0.72605500	      1.24440217	     -0.07769168	      0.61869223	      1.24077476	     -0.07243668	      0.62492356	      1.17348906	     -0.01229920	      0.60145387	      1.12700693	     -0.08440292	      0.79308300	      1.36620532	     -0.59425065	      0.71074208	      1.33106149	     -0.59220269	      0.75883933	      1.28918756	     -0.64258490	      0.70380834	      1.20457751	     -0.70050049	      0.63432156	      1.18631575	     -0.64697585	      0.70554074	      1.15725535	      0.00233944	      0.86834733	      1.11501004	     -0.01330684	      0.83092182	      1.05972605	      0.00916726	      0.75894060	      1.16043809	     -0.67944019	      0.84837268	      1.05210035	     -0.56372754	      0.81505505	      1.01159870	     -0.60961305
